<?xml version="1.0" standalone="no"?>
<!DOCTYPE svg PUBLIC "-//W3C//DTD SVG 20010904//EN"
 "http://www.w3.org/TR/2001/REC-SVG-20010904/DTD/svg10.dtd">
<svg version="1.0" xmlns="http://www.w3.org/2000/svg"
 width="500.000000pt" height="500.000000pt" viewBox="0 0 500.000000 500.000000"
 preserveAspectRatio="xMidYMid meet">
<metadata>
Created by potrace 1.14, written by Peter Selinger 2001-2017
</metadata>
<g transform="translate(0.000000,500.000000) scale(0.100000,-0.100000)"
fill="#000000" stroke="none">
<path d="M2344 4700 c-64 -9 -134 -40 -186 -82 -39 -31 -44 -32 -122 -29 -136
4 -254 -46 -457 -195 -253 -186 -349 -365 -369 -696 -8 -135 -12 -152 -40
-208 -48 -95 -63 -170 -57 -275 9 -137 14 -149 111 -255 29 -32 43 -56 28 -46
-25 15 -10 -4 18 -24 23 -16 28 -17 24 -6 -9 25 18 10 41 -21 11 -15 28 -35
37 -45 10 -10 16 -18 12 -18 -3 0 7 -11 22 -25 15 -14 31 -25 36 -25 5 0 6
-10 3 -22 -4 -15 -3 -18 3 -10 13 19 35 -12 58 -78 10 -30 30 -68 46 -83 16
-18 25 -34 21 -44 -5 -12 -3 -14 8 -8 11 7 12 6 3 -6 -6 -8 -10 -40 -10 -73
l1 -59 -55 -42 c-30 -24 -68 -54 -83 -69 -24 -22 -37 -26 -90 -26 -175 -1
-370 -142 -438 -317 -33 -84 -33 -201 0 -267 20 -41 22 -54 13 -78 -14 -37 10
-40 26 -2 7 14 26 30 42 36 17 6 29 15 26 22 -3 6 -13 36 -22 66 -20 66 -10
150 27 227 32 66 113 145 190 184 55 28 77 33 157 37 l94 4 41 45 c22 24 49
49 60 54 17 10 18 9 3 -13 -21 -33 -51 -152 -66 -268 -13 -91 -15 -97 -57
-144 -25 -28 -51 -62 -58 -77 -13 -24 -18 -26 -58 -22 -58 7 -160 -21 -219
-58 -51 -33 -123 -108 -141 -146 -8 -19 -18 -23 -58 -23 -145 0 -291 -121
-340 -282 -31 -100 -24 -222 16 -304 34 -70 106 -143 171 -175 60 -29 144
-111 144 -142 1 -30 36 -106 63 -135 78 -84 244 -106 333 -45 l38 25 43 -21
c51 -25 97 -27 145 -7 31 13 41 13 95 -4 73 -22 116 -15 204 33 57 31 59 32
86 15 86 -54 111 -60 207 -53 50 4 106 13 124 21 30 12 37 12 65 -4 26 -14 58
-17 168 -17 132 0 138 1 174 27 l37 26 66 -31 c66 -31 68 -32 197 -27 72 2
155 3 185 3 30 -1 98 -2 150 -1 52 1 124 0 160 -1 184 -8 607 -3 660 8 18 3
35 12 38 20 3 10 -6 11 -40 6 l-45 -7 -41 67 c-23 36 -46 64 -51 60 -6 -3 -8
-30 -5 -60 l6 -55 -56 0 -56 0 0 231 0 231 -27 -18 c-16 -10 -53 -31 -83 -47
-30 -16 -56 -31 -58 -32 -2 -2 13 -13 33 -25 70 -43 101 -154 55 -200 -16 -16
-33 -20 -96 -20 -66 0 -75 -2 -72 -17 7 -39 97 -52 136 -21 15 13 18 11 36
-34 15 -35 15 -35 -11 -47 -42 -19 -159 -15 -196 6 -44 25 -77 94 -77 159 0
66 13 100 53 143 l32 33 -80 -7 c-44 -4 -81 -8 -82 -9 -1 -1 9 -24 22 -51 30
-59 31 -80 5 -123 l-20 -32 -86 0 -86 0 14 -23 c23 -33 61 -43 115 -29 25 7
47 11 48 10 2 -2 6 -17 9 -34 6 -29 5 -31 -31 -42 -68 -20 -87 -21 -130 -10
-130 32 -167 234 -60 324 l31 26 -84 -7 c-47 -4 -95 -13 -107 -21 -20 -13 -25
-12 -43 6 -45 45 -122 38 -169 -16 -26 -29 -31 -43 -31 -84 0 -41 5 -56 29
-82 25 -28 35 -32 81 -33 50 0 54 2 61 27 7 27 6 28 -31 28 l-38 0 8 36 c5 19
11 38 14 41 9 10 112 16 141 9 l25 -6 0 -125 0 -125 -50 0 c-38 0 -50 4 -50
15 0 14 -4 14 -32 -1 -73 -38 -195 9 -245 94 -24 40 -28 57 -27 122 0 78 15
121 58 169 l21 23 -25 -7 c-14 -4 -41 -16 -61 -26 -46 -23 -49 -38 -49 -230
l0 -149 -50 0 c-46 0 -50 2 -50 24 l0 24 -29 -29 c-51 -51 -133 -35 -188 37
-39 52 -45 153 -13 219 12 26 29 49 36 52 8 3 14 9 14 14 0 11 -80 12 -98 1
-9 -6 -14 -57 -19 -176 l-6 -167 -46 3 c-39 3 -46 6 -44 23 1 19 1 18 -15 -2
-38 -49 -121 -37 -169 25 -27 36 -28 40 -28 168 l0 130 -55 -4 c-30 -3 -57 -6
-59 -8 -1 -1 8 -15 22 -30 32 -34 51 -111 43 -167 -8 -52 -55 -114 -102 -133
-89 -37 -180 4 -225 101 -31 68 -19 141 33 201 l31 35 -74 -3 -74 -3 -3 -113
c-2 -105 -1 -114 17 -119 20 -5 31 -30 31 -75 0 -25 -4 -28 -31 -28 -36 0 -94
32 -109 60 -6 11 -10 103 -10 210 0 149 -3 191 -12 188 -7 -3 -18 -13 -23 -24
-6 -10 -23 -42 -39 -71 l-28 -52 -29 21 c-41 31 -114 21 -151 -21 -23 -26 -28
-41 -28 -82 0 -45 4 -55 34 -85 27 -27 42 -34 75 -34 42 0 91 17 91 32 0 4 6
8 14 8 11 0 46 -93 46 -122 0 -13 -97 -38 -147 -38 -136 0 -233 101 -233 241
0 71 19 122 62 167 41 41 30 41 -35 -3 -28 -19 -61 -35 -73 -35 -38 0 -142 60
-174 100 -125 158 -68 396 118 487 46 22 71 28 126 28 l69 0 13 36 c33 98 111
169 215 195 61 16 117 12 171 -11 14 -5 22 4 42 49 52 117 182 207 304 210 64
1 65 1 69 -27 11 -79 138 -298 196 -339 18 -12 37 -26 42 -31 43 -37 218 -121
285 -137 62 -15 79 -30 159 -142 57 -79 105 -115 205 -153 54 -21 155 -17 276
10 96 21 150 46 198 90 46 41 52 42 78 14 39 -44 91 -61 188 -62 202 -2 371
91 411 227 35 116 -1 307 -72 388 -8 9 -17 41 -18 71 -2 29 -12 76 -23 104
-22 58 -110 196 -188 297 -30 37 -54 72 -54 77 0 14 48 1 117 -32 107 -51 193
-158 209 -258 6 -39 5 -41 -20 -41 -41 0 -31 -16 29 -44 91 -42 176 -143 200
-239 6 -24 6 -24 -37 -16 -24 4 -53 8 -65 9 -21 0 -22 -2 -11 -25 8 -18 24
-29 55 -37 24 -6 70 -27 101 -47 197 -128 273 -352 183 -536 -54 -110 -132
-164 -293 -205 l-48 -13 0 -78 c0 -44 2 -79 4 -79 3 0 23 35 46 78 l41 77 52
-4 c29 -1 57 -7 63 -12 15 -12 90 37 138 91 21 23 52 73 69 109 26 55 31 82
35 161 4 83 1 105 -22 174 -34 101 -82 172 -166 247 -58 51 -68 66 -73 101 -9
70 -65 168 -132 233 -54 52 -64 69 -83 131 -54 177 -220 323 -388 340 -52 6
-63 10 -82 38 -12 17 -33 45 -47 62 -23 29 -24 33 -11 60 8 16 20 60 26 99 6
38 12 70 13 71 198 125 297 259 348 469 66 275 -37 578 -285 843 -35 37 -76
91 -92 121 -15 29 -45 72 -66 96 -80 91 -359 283 -568 392 -153 79 -304 112
-426 93z m209 -55 c134 -28 338 -136 572 -301 131 -92 200 -160 245 -240 18
-33 63 -90 100 -129 74 -77 164 -209 210 -307 77 -167 96 -383 47 -529 -36
-107 -86 -187 -170 -272 -104 -106 -232 -197 -387 -275 l-135 -68 12 -44 c6
-25 12 -39 12 -33 1 7 34 29 74 49 39 20 109 61 155 90 80 52 82 53 82 28 0
-39 -26 -70 -102 -120 -53 -35 -68 -50 -62 -63 38 -91 87 -274 96 -361 1 -15
-10 -42 -27 -66 -27 -37 -39 -44 -115 -67 -67 -20 -264 -62 -335 -71 -5 0 -47
10 -92 23 -73 22 -81 27 -70 40 11 12 12 42 8 126 l-6 110 -5 -90 c-4 -73 -8
-90 -22 -93 -14 -3 -17 17 -21 195 -3 109 -8 211 -12 227 -10 38 14 32 35 -10
15 -29 15 -29 100 -26 112 3 130 5 130 13 0 12 -100 46 -190 64 -187 37 -381
95 -474 142 -93 46 -214 133 -261 186 -59 68 -119 192 -141 291 -16 76 -16
177 1 286 3 19 3 29 -1 22 -3 -6 -11 -9 -16 -6 -7 4 -8 2 -4 -4 4 -6 3 -42 -1
-79 l-8 -68 -5 85 c-7 120 -1 210 15 210 7 0 15 7 19 15 3 8 1 15 -4 15 -6 0
-10 -5 -10 -12 0 -6 -3 -9 -6 -6 -3 4 2 21 12 40 24 47 144 221 163 235 9 7
11 13 4 13 -6 0 -30 -23 -53 -50 -23 -28 -46 -48 -51 -44 -5 3 -6 -1 -4 -9 3
-7 -4 -22 -15 -32 -16 -14 -19 -15 -15 -3 4 11 0 15 -17 15 -26 -1 -74 19
-101 42 -16 13 -19 13 -27 1 -8 -12 -10 -10 -10 8 0 13 -4 20 -10 17 -5 -3
-10 -1 -10 4 0 6 -7 11 -15 11 -8 0 -15 -6 -15 -12 0 -9 -4 -8 -10 2 -5 8 -10
45 -10 82 0 51 7 84 33 150 41 105 83 180 126 230 43 49 32 48 -34 -1 -29 -22
-55 -37 -59 -34 -3 4 -6 -1 -6 -10 0 -16 -28 -37 -49 -37 -6 0 -11 5 -11 11 0
6 7 8 17 5 10 -4 14 -3 9 1 -4 4 -19 8 -32 8 -19 1 -23 -3 -18 -18 5 -16 3
-17 -14 -6 -12 7 -19 17 -16 21 3 4 -3 5 -12 1 -14 -5 -16 -2 -10 23 9 35 9
35 -46 -41 -53 -73 -84 -147 -119 -285 -19 -73 -27 -94 -28 -70 -1 51 23 156
53 229 91 223 458 501 663 501 38 0 38 1 18 -36 -31 -60 -12 -52 68 29 132
134 245 169 420 132z m-1226 -1047 c-2 -29 -3 -6 -3 52 0 58 1 81 3 53 2 -29
2 -77 0 -105z m53 42 c-11 -22 -23 -40 -25 -40 -3 0 4 18 15 40 11 22 23 40
25 40 3 0 -4 -18 -15 -40z m50 -44 c0 -25 -14 -53 -54 -107 -69 -96 -82 -123
-89 -188 -9 -73 -21 -82 -37 -26 -12 43 -11 52 9 98 23 55 151 255 164 256 4
1 7 -14 7 -33z m-181 -486 c0 -23 -1 -23 -9 -5 -5 11 -9 31 -9 45 0 23 1 23 9
5 5 -11 9 -31 9 -45z m146 -210 c10 -11 16 -20 13 -20 -3 0 -13 9 -23 20 -10
11 -16 20 -13 20 3 0 13 -9 23 -20z m2033 -570 c31 -47 96 -142 144 -211 106
-152 148 -239 152 -310 2 -38 10 -60 30 -85 54 -68 80 -141 84 -240 3 -55 0
-106 -7 -127 -13 -40 -47 -87 -62 -87 -5 0 -1 10 11 22 l20 22 -22 20 c-13 12
-26 20 -30 19 -5 -2 -8 1 -8 6 0 4 -24 2 -52 -6 -62 -16 -109 -10 -193 23 -78
32 -120 73 -160 161 -49 105 -59 147 -46 199 14 55 6 76 -25 68 -14 -4 -24 -2
-24 5 0 6 -8 8 -17 5 -10 -3 -3 8 16 24 20 19 67 42 120 59 62 20 79 29 61 31
-39 6 -53 22 -36 41 7 9 17 26 20 38 4 13 18 24 36 28 43 9 46 23 7 30 -26 5
-39 16 -56 46 -35 61 -111 279 -111 317 0 7 10 17 23 21 30 12 54 -11 125
-119z m-966 43 c56 -13 72 -21 79 -41 13 -34 12 -342 -2 -342 -6 0 -29 13 -52
29 -79 55 -91 72 -175 261 -11 25 -11 25 -11 2 -1 -34 69 -175 129 -260 60
-84 76 -93 294 -179 122 -48 151 -56 216 -58 93 -2 161 -34 214 -98 108 -132
136 -366 52 -436 -11 -10 -10 -1 5 39 11 28 17 61 13 74 l-6 24 -46 -29 c-101
-62 -231 -73 -313 -27 -37 21 -129 127 -129 149 0 5 -35 9 -78 9 -251 0 -464
152 -602 428 -100 201 -119 389 -44 439 19 12 43 15 109 11 50 -3 82 -1 78 5
-3 5 3 6 15 3 11 -4 23 -2 27 4 10 16 150 12 227 -7z m-815 -105 c-3 -8 -6 -5
-6 6 -1 11 2 17 5 13 3 -3 4 -12 1 -19z m-16 -64 c-5 -21 -9 -30 -10 -19 -1
24 10 67 15 62 3 -2 0 -22 -5 -43z m-21 -144 c-7 -50 -15 -88 -17 -86 -3 3 1
46 7 96 7 50 15 88 17 86 3 -3 -1 -46 -7 -96z m267 68 c-3 -7 -5 -2 -5 12 0
14 2 19 5 13 2 -7 2 -19 0 -25z"/>
<path d="M2897 4288 c51 -66 152 -218 158 -237 7 -22 5 -23 -21 -18 -81 18
-242 19 -332 3 -274 -48 -595 -235 -743 -433 -92 -123 -137 -246 -146 -398
-10 -167 44 -305 168 -427 123 -123 234 -172 580 -258 111 -28 228 -61 260
-74 33 -13 59 -19 59 -13 0 39 84 103 302 231 198 115 343 246 421 377 21 35
51 107 68 159 67 206 25 402 -126 583 -55 66 -177 167 -203 167 -7 0 -29 8
-50 19 -20 10 -68 24 -107 31 -90 16 -101 22 -126 73 -24 46 -155 227 -165
227 -4 0 -2 -6 3 -12z m273 -360 c135 -39 205 -81 236 -140 13 -25 12 -28 -7
-42 -24 -16 -57 -10 -120 24 -22 11 -39 16 -39 11 0 -18 53 -72 89 -90 l36
-19 -59 -7 c-48 -6 -66 -4 -94 11 -38 20 -72 78 -72 122 0 20 -9 35 -30 50
-38 28 -42 28 -34 -5 6 -28 25 -65 59 -117 l18 -27 -52 30 c-28 17 -58 31 -65
31 -7 0 -25 14 -42 31 -16 17 -45 39 -66 50 -37 19 -45 21 -208 62 l-95 24 60
12 c33 7 65 15 70 17 6 2 82 2 170 0 132 -3 175 -8 245 -28z m-575 -272 c100
-3 167 -34 205 -95 45 -75 170 -119 178 -63 4 27 18 28 34 2 16 -25 57 -26
181 -6 63 11 97 12 115 5 27 -10 92 -67 92 -80 0 -4 -19 0 -42 8 -28 10 -85
16 -163 17 -149 1 -202 -15 -278 -83 -44 -40 -61 -49 -105 -55 -29 -4 -59 -9
-67 -12 -9 -4 -18 3 -24 17 -10 27 -64 81 -99 98 -71 37 -357 56 -465 31 -27
-6 -91 -33 -143 -60 -125 -66 -132 -65 -95 8 108 214 236 288 481 276 63 -3
151 -7 195 -8z m859 -26 c16 -41 20 -134 7 -180 -6 -21 -9 -17 -29 37 -18 48
-32 69 -64 92 -23 17 -36 31 -30 31 14 0 59 -27 80 -47 18 -18 21 -16 15 7 -3
10 -18 25 -34 32 l-28 13 26 27 c15 16 30 28 34 28 4 0 14 -18 23 -40z m-214
-24 c0 -6 -66 -46 -76 -46 -5 0 9 11 31 25 43 26 45 27 45 21z m-137 -38 c-17
-8 -29 -8 -45 0 -20 9 -18 11 22 11 40 0 42 -2 23 -11z m-606 -189 c143 -25
200 -118 157 -256 -27 -84 -107 -165 -188 -188 -116 -34 -245 -6 -319 69 -120
120 -112 326 14 372 43 16 252 17 336 3z m843 -17 c19 -10 41 -30 48 -45 20
-42 26 -129 12 -185 -55 -232 -365 -242 -451 -14 -36 96 -12 204 52 238 69 35
269 39 339 6z m-1370 -157 c4 -2 10 -27 13 -55 8 -69 50 -142 117 -203 74 -67
126 -90 225 -95 134 -7 242 31 318 112 34 37 81 125 96 183 14 52 34 73 70 73
34 0 46 -13 56 -60 12 -55 61 -146 101 -186 86 -85 228 -111 330 -59 27 14 50
25 52 25 9 0 -24 -45 -70 -95 -132 -145 -323 -221 -583 -232 -214 -9 -359 17
-515 94 -191 95 -300 258 -300 452 l0 64 42 -7 c22 -4 44 -9 48 -11z"/>
<path d="M2219 3565 c-48 -17 -116 -63 -123 -82 -5 -12 -1 -14 16 -8 86 26
117 28 279 15 92 -7 172 -10 178 -6 18 12 13 34 -12 51 -24 15 -203 45 -267
44 -19 0 -51 -6 -71 -14z"/>
<path d="M2250 3349 c-142 -57 -126 -269 20 -269 79 0 150 73 150 154 l0 38
-18 -22 c-16 -20 -21 -21 -43 -10 -45 24 -52 56 -16 65 46 12 134 -51 170
-120 l16 -30 1 27 c1 61 -54 137 -117 164 -37 16 -126 17 -163 3z"/>
<path d="M3126 3340 c-57 -18 -96 -73 -96 -139 0 -80 40 -121 120 -121 83 0
120 42 120 138 0 43 -1 44 -18 29 -26 -24 -47 -21 -71 9 -16 21 -18 30 -10 40
21 26 50 14 106 -42 50 -50 55 -52 48 -27 -23 96 -104 141 -199 113z"/>
<path d="M2776 3034 c-3 -9 0 -28 7 -42 10 -22 20 -28 55 -30 41 -3 72 10 72
29 0 5 -18 9 -40 9 -31 0 -43 5 -56 25 -19 29 -29 31 -38 9z"/>
<path d="M2729 2810 c17 -14 38 -20 76 -20 38 0 59 6 76 20 l24 19 -100 0
-100 0 24 -19z"/>
<path d="M1632 4176 c7 -8 15 -12 17 -11 5 6 -10 25 -20 25 -5 0 -4 -6 3 -14z"/>
<path d="M2952 2470 c-64 -50 -71 -61 -34 -54 26 5 30 3 36 -22 4 -15 4 -107
0 -205 -5 -138 -4 -182 6 -194 18 -22 43 -19 74 10 24 22 26 30 24 97 l-2 73
-3 -63 c-3 -53 -7 -63 -21 -60 -15 3 -17 25 -17 231 0 125 -3 227 -7 227 -3 0
-29 -18 -56 -40z"/>
<path d="M2525 882 c-6 -5 -28 -14 -50 -20 -22 -7 -56 -26 -75 -43 l-35 -31
35 5 c52 7 86 -2 115 -30 l25 -26 0 77 c0 80 0 81 -15 68z"/>
<path d="M2120 780 c-8 -5 -27 -10 -41 -10 -33 0 -39 -18 -39 -126 0 -64 4
-87 18 -104 16 -20 21 -21 41 -11 32 17 41 51 41 148 0 78 2 85 21 90 16 4 17
8 7 14 -17 11 -30 11 -48 -1z"/>
<path d="M1685 677 c-30 -26 -36 -76 -15 -128 15 -35 57 -40 85 -9 29 32 26
117 -4 141 -30 24 -34 24 -66 -4z"/>
<path d="M2443 690 c-49 -20 -60 -104 -18 -145 29 -30 45 -31 75 -7 18 14 24
32 28 74 4 49 2 57 -19 72 -26 18 -34 19 -66 6z"/>
<path d="M3292 693 c-16 -6 -44 -61 -34 -66 4 -2 27 -3 52 -3 37 1 45 4 48 21
1 11 -1 25 -5 31 -10 14 -44 24 -61 17z"/>
<path d="M3620 680 c-11 -11 -20 -29 -20 -41 0 -18 5 -20 48 -17 39 2 48 7 50
24 3 24 -21 54 -44 54 -8 0 -23 -9 -34 -20z"/>
</g>
</svg>
